<svg width="83" height="82" viewBox="0 0 83 82" fill="none" xmlns="http://www.w3.org/2000/svg">
<circle cx="41.8398" cy="41" r="40.5" stroke="#9B3EF8"/>
<path d="M59.3934 23.5586C57.1268 21.2805 54.4269 19.4742 51.4513 18.2452C48.4757 17.0161 45.2839 16.3889 42.0622 16.4C28.5631 16.4 17.5611 27.347 17.5611 40.7786C17.5611 45.0836 18.6984 49.2657 20.8246 52.9557L17.3633 65.6L30.3432 62.2052C33.9281 64.1487 37.9581 65.1818 42.0622 65.1818C55.5613 65.1818 66.5633 54.2348 66.5633 40.8032C66.5633 34.2842 64.0167 28.1588 59.3934 23.5586ZM42.0622 61.049C38.4031 61.049 34.8182 60.065 31.6783 58.22L30.9365 57.7772L23.2228 59.7944L25.2748 52.316L24.7804 51.5535C22.7475 48.3234 21.668 44.5898 21.6652 40.7786C21.6652 29.6102 30.8129 20.5082 42.0374 20.5082C47.4766 20.5082 52.5944 22.6238 56.4266 26.4614C58.3241 28.3408 59.8278 30.5762 60.8506 33.0381C61.8734 35.5 62.395 38.1393 62.385 40.8032C62.4344 51.9716 53.2867 61.049 42.0622 61.049ZM53.2372 45.8954C52.6192 45.6002 49.6029 44.1242 49.059 43.9028C48.4903 43.706 48.0947 43.6076 47.6744 44.198C47.2541 44.813 46.0921 46.1906 45.746 46.5842C45.3999 47.0024 45.029 47.0516 44.4109 46.7318C43.7928 46.4366 41.8149 45.7724 39.4909 43.706C37.6614 42.0824 36.4499 40.0898 36.0791 39.4748C35.7329 38.8598 36.0296 38.54 36.351 38.2202C36.623 37.9496 36.9691 37.5068 37.2658 37.1624C37.5625 36.818 37.6861 36.5474 37.8839 36.1538C38.0817 35.7356 37.9828 35.3913 37.8344 35.0961C37.6861 34.8008 36.4499 31.7997 35.9554 30.5696C35.461 29.3889 34.9418 29.5364 34.5709 29.5118H33.3842C32.9639 29.5118 32.3211 29.6594 31.7524 30.2744C31.2085 30.8894 29.6262 32.3654 29.6262 35.3666C29.6262 38.3678 31.8266 41.2706 32.1233 41.6642C32.42 42.0824 36.4499 48.2324 42.5814 50.8647C44.0401 51.5042 45.1773 51.8732 46.0674 52.1438C47.5261 52.6113 48.8612 52.5374 49.9243 52.3898C51.111 52.2176 53.5587 50.9138 54.0531 49.487C54.5723 48.0602 54.5723 46.8548 54.3993 46.5842C54.2262 46.3137 53.8553 46.1906 53.2372 45.8954Z" fill="#9B3EF8"/>
</svg>
